<svg width="256" height="60" viewBox="0 0 256 60" fill="none" xmlns="http://www.w3.org/2000/svg">
<path d="M20.5 6L41 18V42L20.5 54L0 42V18L20.5 6ZM4.31579 20.5156V20.5265L20.5 30V48.9578L36.6842 39.4844V20.5156L20.5 11.0422L4.31579 20.5156Z" fill="currentColor"/>
<path d="M60.6129 50V14.24H66.8529L80.2449 32.432H77.2689L90.3729 14.24H96.6129V50H90.0369V21.68L92.5809 22.304L78.9969 40.4H78.2289L64.9809 22.304L67.1409 21.68V50H60.6129ZM114.353 50.576C111.665 50.576 109.313 49.968 107.297 48.752C105.281 47.536 103.713 45.888 102.593 43.808C101.473 41.728 100.913 39.424 100.913 36.896C100.913 34.272 101.473 31.952 102.593 29.936C103.745 27.888 105.297 26.272 107.249 25.088C109.233 23.904 111.441 23.312 113.873 23.312C115.921 23.312 117.713 23.648 119.249 24.32C120.817 24.992 122.145 25.92 123.233 27.104C124.321 28.288 125.153 29.648 125.729 31.184C126.305 32.688 126.593 34.32 126.593 36.08C126.593 36.528 126.561 36.992 126.497 37.472C126.465 37.952 126.385 38.368 126.257 38.72H106.097V33.92H122.705L119.729 36.176C120.017 34.704 119.937 33.392 119.489 32.24C119.073 31.088 118.369 30.176 117.377 29.504C116.417 28.832 115.249 28.496 113.873 28.496C112.561 28.496 111.393 28.832 110.369 29.504C109.345 30.144 108.561 31.104 108.017 32.384C107.505 33.632 107.313 35.152 107.441 36.944C107.313 38.544 107.521 39.968 108.065 41.216C108.641 42.432 109.473 43.376 110.561 44.048C111.681 44.72 112.961 45.056 114.401 45.056C115.841 45.056 117.057 44.752 118.049 44.144C119.073 43.536 119.873 42.72 120.449 41.696L125.537 44.192C125.025 45.44 124.225 46.544 123.137 47.504C122.049 48.464 120.753 49.216 119.249 49.76C117.777 50.304 116.145 50.576 114.353 50.576ZM130.399 50V23.888H136.303V29.024L135.823 28.112C136.431 26.544 137.423 25.36 138.799 24.56C140.207 23.728 141.839 23.312 143.695 23.312C145.615 23.312 147.311 23.728 148.783 24.56C150.287 25.392 151.455 26.56 152.287 28.064C153.119 29.536 153.535 31.248 153.535 33.2V50H147.247V34.688C147.247 33.536 147.023 32.544 146.575 31.712C146.127 30.88 145.503 30.24 144.703 29.792C143.935 29.312 143.023 29.072 141.967 29.072C140.943 29.072 140.031 29.312 139.231 29.792C138.431 30.24 137.807 30.88 137.359 31.712C136.911 32.544 136.687 33.536 136.687 34.688V50H130.399ZM157.892 50V23.888H164.18V50H157.892ZM157.892 20.96V14.24H164.18V20.96H157.892ZM172.05 50V29.504H167.442V23.888H172.05V23.024C172.05 21.04 172.45 19.36 173.25 17.984C174.082 16.576 175.234 15.504 176.706 14.768C178.178 14.032 179.922 13.664 181.938 13.664C182.322 13.664 182.738 13.696 183.186 13.76C183.666 13.792 184.066 13.84 184.386 13.904V19.328C184.066 19.264 183.762 19.232 183.474 19.232C183.218 19.2 182.978 19.184 182.754 19.184C181.346 19.184 180.258 19.504 179.49 20.144C178.722 20.752 178.338 21.712 178.338 23.024V23.888H184.146V29.504H178.338V50H172.05ZM199.2 50.576C196.512 50.576 194.16 49.968 192.144 48.752C190.128 47.536 188.56 45.888 187.44 43.808C186.32 41.728 185.76 39.424 185.76 36.896C185.76 34.272 186.32 31.952 187.44 29.936C188.592 27.888 190.144 26.272 192.096 25.088C194.08 23.904 196.288 23.312 198.72 23.312C200.768 23.312 202.56 23.648 204.096 24.32C205.664 24.992 206.992 25.92 208.08 27.104C209.168 28.288 210 29.648 210.576 31.184C211.152 32.688 211.44 34.32 211.44 36.08C211.44 36.528 211.408 36.992 211.344 37.472C211.312 37.952 211.232 38.368 211.104 38.72H190.944V33.92H207.552L204.576 36.176C204.864 34.704 204.784 33.392 204.336 32.24C203.92 31.088 203.216 30.176 202.224 29.504C201.264 28.832 200.096 28.496 198.72 28.496C197.408 28.496 196.24 28.832 195.216 29.504C194.192 30.144 193.408 31.104 192.864 32.384C192.352 33.632 192.16 35.152 192.288 36.944C192.16 38.544 192.368 39.968 192.912 41.216C193.488 42.432 194.32 43.376 195.408 44.048C196.528 44.72 197.808 45.056 199.248 45.056C200.688 45.056 201.904 44.752 202.896 44.144C203.92 43.536 204.72 42.72 205.296 41.696L210.384 44.192C209.872 45.44 209.072 46.544 207.984 47.504C206.896 48.464 205.6 49.216 204.096 49.76C202.624 50.304 200.992 50.576 199.2 50.576ZM225.183 50.576C222.399 50.576 219.967 49.92 217.887 48.608C215.839 47.264 214.431 45.456 213.663 43.184L218.367 40.928C219.039 42.4 219.967 43.552 221.151 44.384C222.367 45.216 223.711 45.632 225.183 45.632C226.335 45.632 227.247 45.376 227.919 44.864C228.591 44.352 228.927 43.68 228.927 42.848C228.927 42.336 228.783 41.92 228.495 41.6C228.239 41.248 227.871 40.96 227.391 40.736C226.943 40.48 226.447 40.272 225.903 40.112L221.631 38.912C219.423 38.272 217.743 37.296 216.591 35.984C215.471 34.672 214.911 33.12 214.911 31.328C214.911 29.728 215.311 28.336 216.111 27.152C216.943 25.936 218.079 24.992 219.519 24.32C220.991 23.648 222.671 23.312 224.559 23.312C227.023 23.312 229.199 23.904 231.087 25.088C232.975 26.272 234.319 27.936 235.119 30.08L230.319 32.336C229.871 31.152 229.119 30.208 228.063 29.504C227.007 28.8 225.823 28.448 224.511 28.448C223.455 28.448 222.623 28.688 222.015 29.168C221.407 29.648 221.103 30.272 221.103 31.04C221.103 31.52 221.231 31.936 221.487 32.288C221.743 32.64 222.095 32.928 222.543 33.152C223.023 33.376 223.567 33.584 224.175 33.776L228.351 35.024C230.495 35.664 232.143 36.624 233.295 37.904C234.479 39.184 235.071 40.752 235.071 42.608C235.071 44.176 234.655 45.568 233.823 46.784C232.991 47.968 231.839 48.896 230.367 49.568C228.895 50.24 227.167 50.576 225.183 50.576ZM250.847 50.288C247.903 50.288 245.615 49.488 243.983 47.888C242.383 46.256 241.583 43.968 241.583 41.024V29.504H237.071V23.888H237.551C238.831 23.888 239.823 23.552 240.527 22.88C241.231 22.208 241.583 21.232 241.583 19.952V17.936H247.871V23.888H253.871V29.504H247.871V40.688C247.871 41.552 248.015 42.288 248.303 42.896C248.623 43.504 249.103 43.968 249.743 44.288C250.415 44.608 251.263 44.768 252.287 44.768C252.511 44.768 252.767 44.752 253.055 44.72C253.375 44.688 253.679 44.656 253.967 44.624V50C253.519 50.064 253.007 50.128 252.431 50.192C251.855 50.256 251.327 50.288 250.847 50.288Z" fill="currentColor"/>
</svg>
